<?xml version="1.0" encoding="utf-8"?>
<!-- Generator: Adobe Illustrator 15.1.0, SVG Export Plug-In . SVG Version: 6.00 Build 0)  -->
<!DOCTYPE svg PUBLIC "-//W3C//DTD SVG 1.1//EN" "http://www.w3.org/Graphics/SVG/1.1/DTD/svg11.dtd">
<svg version="1.1" id="Ebene_1" xmlns="http://www.w3.org/2000/svg" xmlns:xlink="http://www.w3.org/1999/xlink" x="0px" y="0px"
	 width="316px" height="297.64px" viewBox="0 0 316 297.64" enable-background="new 0 0 316 297.64" xml:space="preserve">
<polygon points="11.919,290.186 160.657,32.562 309.398,290.186 "/>
<g>
	<defs>
		<rect id="SVGID_1_" x="-80" width="841.89" height="595.28"/>
	</defs>
	<clipPath id="SVGID_2_">
		<use xlink:href="#SVGID_1_"  overflow="visible"/>
	</clipPath>
	<path clip-path="url(#SVGID_2_)" fill="#FFFFFF" d="M46.772,276.945v5.722h-2.848v-17.191h8.596c1.568,0,2.914,0.562,4.037,1.685
		c1.123,1.124,1.686,2.476,1.686,4.062c0,1.569-0.563,2.923-1.686,4.063c-1.123,1.106-2.469,1.659-4.037,1.659H46.772z
		 M46.772,268.349v5.723h5.748c0.775,0,1.443-0.281,2.006-0.843c0.56-0.561,0.842-1.23,0.842-2.006c0-0.793-0.282-1.47-0.842-2.031
		c-0.563-0.562-1.231-0.843-2.006-0.843H46.772z"/>
	<path clip-path="url(#SVGID_2_)" fill="#FFFFFF" d="M79.223,279.794h-7.902l-1.461,2.873h-3.195l8.595-17.192l8.596,17.192h-3.197
		L79.223,279.794z M72.733,276.944h5.053l-2.526-5.053L72.733,276.944z"/>
	<path clip-path="url(#SVGID_2_)" fill="#FFFFFF" d="M97.182,265.476h5.723c1.172,0,2.277,0.226,3.318,0.681
		c1.041,0.454,1.953,1.074,2.739,1.858c0.783,0.784,1.402,1.697,1.857,2.737c0.455,1.041,0.682,2.147,0.682,3.319
		c0,1.173-0.227,2.28-0.682,3.32c-0.455,1.041-1.07,1.953-1.846,2.737c-0.775,0.784-1.689,1.404-2.736,1.857
		c-1.049,0.455-2.16,0.682-3.332,0.682h-5.723V265.476z M102.905,279.794c0.793,0,1.535-0.149,2.229-0.446
		c0.695-0.297,1.3-0.71,1.82-1.24c0.521-0.527,0.93-1.138,1.226-1.832c0.297-0.694,0.448-1.428,0.448-2.205
		c0-0.776-0.151-1.51-0.448-2.205c-0.296-0.693-0.709-1.303-1.238-1.832c-0.529-0.529-1.139-0.941-1.832-1.239
		c-0.693-0.297-1.43-0.446-2.205-0.446h-2.873v11.445H102.905z"/>
	<polygon clip-path="url(#SVGID_2_)" fill="#FFFFFF" points="136.27,265.476 136.27,268.349 127.676,268.349 127.676,272.66 
		136.27,272.66 136.27,275.509 127.676,275.509 127.676,279.793 136.27,279.793 136.27,282.667 124.827,282.667 124.827,265.476 	
		"/>
	<path clip-path="url(#SVGID_2_)" fill="#FFFFFF" d="M160.622,282.667l-3.321-5.722h-4.855v5.722h-2.848v-17.191h8.596
		c1.568,0,2.914,0.562,4.037,1.685c1.123,1.124,1.686,2.468,1.686,4.037c0,1.189-0.34,2.271-1.016,3.245
		c-0.662,0.958-1.504,1.644-2.527,2.056l3.543,6.168H160.622z M158.194,268.349h-5.748v5.698l5.748,0.025
		c0.775,0,1.443-0.281,2.006-0.843c0.562-0.561,0.842-1.238,0.842-2.031c0-0.776-0.28-1.445-0.842-2.006
		C159.637,268.63,158.969,268.349,158.194,268.349"/>
	<path clip-path="url(#SVGID_2_)" fill="#FFFFFF" d="M190.049,274.071c1.006,0.975,1.512,2.172,1.512,3.592
		c0,0.678-0.133,1.321-0.399,1.933c-0.263,0.61-0.621,1.143-1.076,1.597c-0.455,0.455-0.986,0.814-1.597,1.078
		c-0.612,0.264-1.256,0.396-1.932,0.396h-9.314v-17.191h9.314c0.66,0,1.299,0.132,1.918,0.396c0.619,0.264,1.156,0.623,1.611,1.077
		c0.455,0.454,0.813,0.988,1.076,1.599c0.266,0.61,0.399,1.255,0.399,1.932C191.561,271.884,191.055,273.081,190.049,274.071
		 M186.557,268.349h-6.467v4.31h6.467c0.279,0,0.553-0.057,0.816-0.174c0.264-0.114,0.496-0.271,0.694-0.47
		c0.199-0.199,0.351-0.429,0.459-0.693c0.107-0.264,0.16-0.546,0.16-0.842c0-0.282-0.053-0.553-0.16-0.818
		c-0.108-0.264-0.26-0.495-0.459-0.693c-0.198-0.199-0.43-0.352-0.694-0.459C187.11,268.403,186.836,268.349,186.557,268.349
		 M186.557,279.794c0.279,0,0.553-0.054,0.816-0.161c0.264-0.108,0.496-0.26,0.694-0.458c0.199-0.199,0.351-0.43,0.459-0.694
		c0.107-0.264,0.16-0.537,0.16-0.818c0-0.28-0.053-0.554-0.16-0.817c-0.108-0.264-0.258-0.495-0.446-0.695
		c-0.191-0.197-0.418-0.353-0.681-0.469c-0.264-0.116-0.545-0.173-0.842-0.173h-6.467v4.285H186.557z"/>
	<path clip-path="url(#SVGID_2_)" fill="#FFFFFF" d="M213.483,265.476c2.379,0,4.4,0.843,6.068,2.526
		c1.702,1.685,2.553,3.708,2.553,6.07c0,2.394-0.851,4.418-2.553,6.069c-1.668,1.684-3.689,2.526-6.068,2.526
		s-4.4-0.842-6.068-2.526c-1.686-1.668-2.528-3.691-2.528-6.069c0-2.362,0.842-4.385,2.528-6.07
		C209.065,266.319,211.088,265.476,213.483,265.476 M213.483,268.349c-1.57,0-2.924,0.562-4.062,1.686
		c-1.108,1.122-1.661,2.468-1.661,4.037s0.553,2.923,1.661,4.062c1.138,1.107,2.492,1.66,4.062,1.66c1.568,0,2.914-0.553,4.037-1.66
		c1.123-1.139,1.686-2.493,1.686-4.062s-0.563-2.915-1.686-4.037C216.397,268.911,215.051,268.349,213.483,268.349"/>
	<path clip-path="url(#SVGID_2_)" fill="#FFFFFF" d="M246.455,282.667l-3.322-5.722h-4.853v5.722h-2.85v-17.191h8.596
		c1.567,0,2.915,0.562,4.038,1.685c1.123,1.124,1.686,2.468,1.686,4.037c0,1.189-0.34,2.271-1.016,3.245
		c-0.662,0.958-1.504,1.644-2.527,2.056l3.542,6.168H246.455z M244.026,268.349h-5.746v5.698l5.746,0.025
		c0.775,0,1.444-0.281,2.007-0.843c0.563-0.561,0.843-1.238,0.843-2.031c0-0.776-0.281-1.445-0.843-2.006
		C245.47,268.63,244.801,268.349,244.026,268.349"/>
	<polygon clip-path="url(#SVGID_2_)" fill="#FFFFFF" points="263.076,265.451 274.519,275.756 274.519,265.451 277.392,265.451 
		277.392,282.642 277.392,282.617 277.392,282.667 265.923,272.362 265.923,282.642 263.076,282.642 	"/>
	<polygon clip-path="url(#SVGID_2_)" fill="#FFFFFF" points="48.701,250.464 97.781,201.385 97.781,250.464 90.771,250.464 
		90.771,218.913 59.219,250.464 	"/>
	<path clip-path="url(#SVGID_2_)" fill="#FFFFFF" d="M156.115,201.385v7.011h-35.057c-4.673,0-7.009,2.338-7.009,7.011
		c0,4.675,2.336,7.011,7.009,7.011h21.036c9.347,0,14.021,4.675,14.021,14.024c0,9.348-4.674,14.022-14.021,14.022h-35.057v-7.011
		h35.057c4.673,0,7.009-2.337,7.009-7.011c0-4.674-2.336-7.012-7.009-7.012h-21.036c-9.347,0-14.021-4.673-14.021-14.023
		c0-9.347,4.674-14.022,14.021-14.022H156.115z"/>
	<polygon clip-path="url(#SVGID_2_)" fill="#FFFFFF" points="165.371,201.385 214.451,201.385 214.451,208.396 193.416,208.396 
		193.416,250.464 186.404,250.464 186.404,208.396 165.371,208.396 	"/>
	<polygon clip-path="url(#SVGID_2_)" fill="#FFFFFF" points="262.099,250.464 230.548,218.913 230.548,250.464 223.536,250.464 
		223.536,201.385 272.616,250.464 	"/>
	<path clip-path="url(#SVGID_2_)" d="M2.99,358.397c0.485,0.289,1.314,0.613,2.106,0.613c1.134,0,1.675-0.559,1.675-1.297
		c0-0.756-0.45-1.17-1.602-1.602c-1.585-0.576-2.324-1.424-2.324-2.467c0-1.406,1.153-2.559,3.007-2.559
		c0.883,0,1.657,0.234,2.125,0.541l-0.378,1.135c-0.342-0.199-0.972-0.504-1.783-0.504c-0.935,0-1.44,0.539-1.44,1.188
		c0,0.738,0.505,1.063,1.638,1.494c1.495,0.559,2.288,1.314,2.288,2.629c0,1.549-1.208,2.629-3.242,2.629
		c-0.954,0-1.837-0.252-2.448-0.611L2.99,358.397z"/>
	<path clip-path="url(#SVGID_2_)" d="M16.545,359.694c-0.414,0.197-1.332,0.504-2.503,0.504c-2.629,0-4.339-1.781-4.339-4.465
		s1.836-4.646,4.681-4.646c0.936,0,1.765,0.234,2.197,0.469l-0.36,1.207c-0.378-0.199-0.973-0.414-1.837-0.414
		c-1.998,0-3.078,1.494-3.078,3.313c0,2.018,1.296,3.26,3.024,3.26c0.901,0,1.494-0.217,1.944-0.414L16.545,359.694z"/>
	<path clip-path="url(#SVGID_2_)" d="M18.397,347.216h1.584v5.438h0.036c0.252-0.449,0.649-0.863,1.135-1.115
		c0.468-0.289,1.026-0.451,1.62-0.451c1.171,0,3.043,0.721,3.043,3.729v5.186h-1.584v-5.006c0-1.424-0.522-2.594-2.017-2.594
		c-1.026,0-1.819,0.721-2.125,1.586c-0.089,0.215-0.108,0.449-0.108,0.756v5.258h-1.584V347.216z"/>
	<path clip-path="url(#SVGID_2_)" d="M29.017,351.286l1.171,4.41c0.233,0.973,0.468,1.891,0.63,2.791h0.053
		c0.199-0.881,0.487-1.818,0.775-2.771l1.423-4.43h1.332l1.35,4.357c0.325,1.025,0.577,1.963,0.775,2.844h0.053
		c0.144-0.881,0.378-1.799,0.667-2.826l1.242-4.375h1.566l-2.808,8.715h-1.441l-1.332-4.16c-0.307-0.99-0.559-1.854-0.774-2.881
		h-0.036c-0.216,1.045-0.487,1.963-0.792,2.898l-1.405,4.143h-1.44l-2.629-8.715H29.017z"/>
	<path clip-path="url(#SVGID_2_)" d="M47.703,357.911c0,0.758,0.036,1.496,0.126,2.09h-1.422l-0.145-1.1h-0.053
		c-0.469,0.686-1.423,1.299-2.665,1.299c-1.765,0-2.665-1.244-2.665-2.504c0-2.107,1.873-3.26,5.24-3.242v-0.18
		c0-0.721-0.198-2.033-1.982-2.016c-0.828,0-1.673,0.234-2.286,0.648l-0.36-1.063c0.721-0.451,1.783-0.758,2.881-0.758
		c2.682,0,3.331,1.82,3.331,3.566V357.911z M46.155,355.554c-1.729-0.037-3.691,0.27-3.691,1.963c0,1.043,0.683,1.512,1.476,1.512
		c1.153,0,1.891-0.721,2.143-1.459c0.053-0.162,0.072-0.342,0.072-0.504V355.554z"/>
	<path clip-path="url(#SVGID_2_)" d="M50.256,354.005c0-1.027-0.018-1.908-0.071-2.719h1.385l0.073,1.711h0.053
		c0.397-1.172,1.37-1.91,2.431-1.91c0.162,0,0.288,0.02,0.433,0.055v1.477c-0.18-0.018-0.342-0.035-0.559-0.035
		c-1.116,0-1.908,0.846-2.124,2.016c-0.036,0.234-0.055,0.486-0.055,0.756v4.646h-1.584L50.256,354.005z"/>
	<path clip-path="url(#SVGID_2_)" d="M55.296,359.083l3.943-5.133c0.396-0.486,0.739-0.9,1.153-1.367v-0.037h-4.736v-1.26H62.3v0.99
		l-3.907,5.078c-0.361,0.467-0.72,0.918-1.117,1.35v0.035h5.096v1.262h-7.076V359.083z"/>
	<polygon clip-path="url(#SVGID_2_)" points="62.659,360.722 67.664,347.667 68.906,347.667 63.865,360.722 	"/>
	<path clip-path="url(#SVGID_2_)" d="M76.376,359.694c-0.414,0.197-1.333,0.504-2.503,0.504c-2.629,0-4.339-1.781-4.339-4.465
		s1.836-4.646,4.681-4.646c0.936,0,1.765,0.234,2.197,0.469l-0.36,1.207c-0.378-0.199-0.973-0.414-1.837-0.414
		c-1.998,0-3.078,1.494-3.078,3.313c0,2.018,1.296,3.26,3.024,3.26c0.901,0,1.494-0.217,1.944-0.414L76.376,359.694z"/>
	<path clip-path="url(#SVGID_2_)" d="M85.52,357.624c0,0.9,0.019,1.691,0.072,2.377h-1.404l-0.09-1.424h-0.036
		c-0.396,0.703-1.333,1.621-2.881,1.621c-1.369,0-3.007-0.773-3.007-3.816v-5.096h1.584v4.807c0,1.656,0.523,2.791,1.945,2.791
		c1.062,0,1.8-0.738,2.088-1.459c0.09-0.215,0.145-0.504,0.145-0.809v-5.33h1.584V357.624z"/>
	<path clip-path="url(#SVGID_2_)" d="M90.054,349.198v2.088h2.269v1.207h-2.269v4.699c0,1.08,0.307,1.693,1.188,1.693
		c0.433,0,0.685-0.037,0.918-0.109l0.073,1.207c-0.306,0.107-0.792,0.215-1.405,0.215c-0.738,0-1.332-0.252-1.71-0.666
		c-0.432-0.486-0.612-1.26-0.612-2.287v-4.752h-1.35v-1.207h1.35v-1.604L90.054,349.198z"/>
	<path clip-path="url(#SVGID_2_)" d="M97.543,360.198c-2.341,0-4.176-1.729-4.176-4.482c0-2.918,1.925-4.629,4.321-4.629
		c2.502,0,4.195,1.82,4.195,4.467c0,3.24-2.251,4.645-4.321,4.645H97.543z M97.597,359.011c1.513,0,2.647-1.424,2.647-3.404
		c0-1.477-0.738-3.33-2.611-3.33c-1.854,0-2.664,1.729-2.664,3.385c0,1.908,1.08,3.35,2.61,3.35H97.597z"/>
	<path clip-path="url(#SVGID_2_)" d="M111.17,357.624c0,0.9,0.019,1.691,0.072,2.377h-1.404l-0.09-1.424h-0.036
		c-0.396,0.703-1.333,1.621-2.881,1.621c-1.369,0-3.007-0.773-3.007-3.816v-5.096h1.584v4.807c0,1.656,0.523,2.791,1.945,2.791
		c1.062,0,1.8-0.738,2.088-1.459c0.09-0.215,0.145-0.504,0.145-0.809v-5.33h1.584V357.624z"/>
	<path clip-path="url(#SVGID_2_)" d="M115.705,349.198v2.088h2.269v1.207h-2.269v4.699c0,1.08,0.307,1.693,1.188,1.693
		c0.433,0,0.685-0.037,0.918-0.109l0.073,1.207c-0.306,0.107-0.792,0.215-1.405,0.215c-0.738,0-1.332-0.252-1.71-0.666
		c-0.432-0.486-0.612-1.26-0.612-2.287v-4.752h-1.35v-1.207h1.35v-1.604L115.705,349.198z"/>
	<path clip-path="url(#SVGID_2_)" d="M188.081,556.151c-0.191-0.197-0.418-0.354-0.682-0.469c-0.263-0.115-0.545-0.174-0.841-0.174
		h-6.467v4.285h6.467c0.279,0,0.552-0.053,0.816-0.16s0.496-0.26,0.693-0.459c0.2-0.199,0.352-0.43,0.459-0.693
		c0.108-0.264,0.16-0.537,0.16-0.818c0-0.279-0.052-0.553-0.16-0.816C188.418,556.583,188.268,556.351,188.081,556.151"/>
	<path clip-path="url(#SVGID_2_)" d="M213.483,548.349c-1.57,0-2.924,0.563-4.062,1.688c-1.108,1.121-1.661,2.467-1.661,4.035
		c0,1.57,0.553,2.924,1.661,4.063c1.138,1.107,2.492,1.66,4.062,1.66c1.568,0,2.914-0.553,4.037-1.66
		c1.123-1.139,1.686-2.492,1.686-4.063c0-1.568-0.563-2.914-1.686-4.035C216.397,548.911,215.051,548.349,213.483,548.349"/>
	<path clip-path="url(#SVGID_2_)" d="M158.194,548.349h-5.748v5.699l5.748,0.023c0.775,0,1.443-0.279,2.006-0.842
		c0.562-0.561,0.842-1.238,0.842-2.031c0-0.775-0.28-1.445-0.842-2.006C159.637,548.63,158.969,548.349,158.194,548.349"/>
	<polygon clip-path="url(#SVGID_2_)" points="72.733,556.944 77.786,556.944 75.26,551.892 	"/>
	<path clip-path="url(#SVGID_2_)" d="M106.942,550.034c-0.529-0.529-1.139-0.941-1.832-1.238s-1.43-0.447-2.205-0.447h-2.873v11.445
		h2.873c0.793,0,1.535-0.148,2.228-0.445c0.696-0.297,1.301-0.711,1.821-1.24c0.521-0.527,0.929-1.139,1.226-1.832
		c0.297-0.693,0.448-1.428,0.448-2.205c0-0.775-0.151-1.51-0.448-2.205C107.883,551.173,107.471,550.563,106.942,550.034"/>
	<path clip-path="url(#SVGID_2_)" d="M52.52,548.349h-5.748v5.723h5.748c0.775,0,1.443-0.279,2.006-0.842
		c0.56-0.561,0.842-1.23,0.842-2.006c0-0.793-0.282-1.471-0.842-2.031C53.963,548.63,53.295,548.349,52.52,548.349"/>
	<path clip-path="url(#SVGID_2_)" d="M188.067,548.97c-0.197-0.199-0.43-0.352-0.693-0.459c-0.264-0.107-0.537-0.162-0.817-0.162
		h-6.467v4.311h6.467c0.28,0,0.553-0.057,0.817-0.174c0.263-0.113,0.496-0.271,0.693-0.471c0.199-0.197,0.352-0.428,0.459-0.691
		c0.107-0.266,0.16-0.547,0.16-0.844c0-0.281-0.053-0.553-0.16-0.816C188.419,549.397,188.266,549.167,188.067,548.97"/>
	<path clip-path="url(#SVGID_2_)" d="M244.026,548.349h-5.746v5.699l5.746,0.023c0.775,0,1.444-0.279,2.007-0.842
		c0.563-0.561,0.843-1.238,0.843-2.031c0-0.775-0.281-1.445-0.843-2.006C245.47,548.63,244.801,548.349,244.026,548.349"/>
	<path clip-path="url(#SVGID_2_)" d="M160.658,312.563L11.919,570.187h297.479L160.658,312.563z M56.557,555.286
		c-1.123,1.105-2.469,1.658-4.037,1.658h-5.748v5.723h-2.848v-17.191h8.596c1.568,0,2.914,0.563,4.037,1.686
		s1.686,2.477,1.686,4.063C58.243,552.792,57.68,554.146,56.557,555.286 M80.659,562.667l-1.436-2.873h-7.902l-1.461,2.873h-3.196
		l8.596-17.191l8.596,17.191H80.659z M59.218,530.464H48.701l49.08-49.078v49.078h-7.01v-31.551L59.218,530.464z M110.819,557.392
		c-0.455,1.041-1.071,1.953-1.846,2.736c-0.775,0.785-1.689,1.404-2.736,1.857c-1.049,0.455-2.16,0.682-3.332,0.682h-5.723v-17.191
		h5.723c1.172,0,2.277,0.227,3.318,0.682s1.953,1.074,2.738,1.857c0.784,0.785,1.403,1.697,1.858,2.738
		c0.455,1.041,0.681,2.146,0.681,3.318C111.5,555.245,111.274,556.351,110.819,557.392 M136.27,548.349h-8.594v4.311h8.594v2.85
		h-8.594v4.285h8.594v2.873h-11.443v-17.191h11.443V548.349z M107.037,530.464v-7.01h35.056c4.674,0,7.01-2.338,7.01-7.012
		s-2.336-7.012-7.01-7.012h-21.035c-9.348,0-14.021-4.674-14.021-14.023c0-9.348,4.673-14.021,14.021-14.021h35.057v7.01h-35.057
		c-4.674,0-7.01,2.338-7.01,7.012c0,4.676,2.336,7.012,7.01,7.012h21.035c9.348,0,14.022,4.674,14.022,14.023
		c0,9.348-4.674,14.021-14.022,14.021H107.037z M163.916,562.667h-3.294l-3.321-5.723h-4.855v5.723h-2.848v-17.191h8.596
		c1.568,0,2.914,0.563,4.037,1.686s1.685,2.469,1.685,4.037c0,1.189-0.339,2.271-1.015,3.244c-0.662,0.959-1.504,1.645-2.528,2.057
		L163.916,562.667z M191.561,557.663c0,0.678-0.133,1.322-0.398,1.934c-0.264,0.609-0.622,1.143-1.077,1.598
		c-0.455,0.453-0.986,0.813-1.597,1.076c-0.612,0.266-1.256,0.396-1.932,0.396h-9.314v-17.191h9.314c0.66,0,1.299,0.133,1.918,0.396
		s1.156,0.623,1.611,1.078c0.455,0.453,0.813,0.986,1.077,1.598c0.265,0.611,0.398,1.256,0.398,1.932
		c0,1.404-0.506,2.602-1.512,3.592C191.055,555.046,191.561,556.243,191.561,557.663 M193.415,530.464h-7.011v-42.068h-21.033v-7.01
		h49.08v7.01h-21.036V530.464z M219.551,560.142c-1.668,1.684-3.689,2.525-6.068,2.525c-2.379,0-4.401-0.842-6.069-2.525
		c-1.685-1.668-2.527-3.691-2.527-6.07c0-2.361,0.842-4.385,2.527-6.068c1.651-1.684,3.674-2.527,6.069-2.527
		c2.379,0,4.4,0.844,6.068,2.527c1.701,1.684,2.553,3.707,2.553,6.068C222.104,556.466,221.252,558.489,219.551,560.142
		 M249.747,562.667h-3.292l-3.321-5.723h-4.853v5.723h-2.85v-17.191h8.596c1.569,0,2.915,0.563,4.038,1.686s1.684,2.469,1.684,4.037
		c0,1.189-0.338,2.271-1.014,3.244c-0.662,0.959-1.504,1.645-2.527,2.057L249.747,562.667z M230.548,498.913v31.551h-7.011v-49.078
		l49.079,49.078h-10.517L230.548,498.913z M277.394,562.644v0.023l-11.471-10.305v10.281h-2.848v-17.191l11.445,10.305v-10.305
		h2.873v17.166V562.644z"/>
</g>
</svg>
